<?xml version="1.0" encoding="UTF-8" standalone="no"?>
<!-- Generator: Adobe Illustrator 18.1.1, SVG Export Plug-In . SVG Version: 6.00 Build 0)  -->

<svg
   xmlns:dc="http://purl.org/dc/elements/1.1/"
   xmlns:cc="http://creativecommons.org/ns#"
   xmlns:rdf="http://www.w3.org/1999/02/22-rdf-syntax-ns#"
   xmlns:svg="http://www.w3.org/2000/svg"
   xmlns="http://www.w3.org/2000/svg"
   xmlns:sodipodi="http://sodipodi.sourceforge.net/DTD/sodipodi-0.dtd"
   xmlns:inkscape="http://www.inkscape.org/namespaces/inkscape"
   version="1.1"
   id="Livello_1"
   x="0px"
   y="0px"
   viewBox="0 0 89.199997 72.111404"
   enable-background="new 0 0 89 73"
   xml:space="preserve"
   sodipodi:docname="Generali logo.svg"
   width="89.199997"
   height="72.111404"
   inkscape:version="0.92.2 (5c3e80d, 2017-08-06)"><metadata
     id="metadata33"><rdf:RDF><cc:Work
         rdf:about=""><dc:format>image/svg+xml</dc:format><dc:type
           rdf:resource="http://purl.org/dc/dcmitype/StillImage" /><dc:title></dc:title></cc:Work></rdf:RDF></metadata><defs
     id="defs31" /><sodipodi:namedview
     pagecolor="#ffffff"
     bordercolor="#666666"
     borderopacity="1"
     objecttolerance="10"
     gridtolerance="10"
     guidetolerance="10"
     inkscape:pageopacity="0"
     inkscape:pageshadow="2"
     inkscape:window-width="1234"
     inkscape:window-height="851"
     id="namedview29"
     showgrid="false"
     fit-margin-top="0"
     fit-margin-left="0"
     fit-margin-right="0"
     fit-margin-bottom="0"
     inkscape:zoom="3.2328767"
     inkscape:cx="39.286864"
     inkscape:cy="36"
     inkscape:window-x="67"
     inkscape:window-y="27"
     inkscape:window-maximized="0"
     inkscape:current-layer="Livello_1" /><g
     id="g26"
     transform="translate(0.2,-0.38859737)"><path
       d="m 16.9,64.4 v -6.1 c 3.8,0 5.2,-0.2 5.9,4.5 h 0.4 V 57.6 H 12.7 v 0.7 h 1.8 v 13.5 h -2 v 0.7 H 23.3 V 67 h -0.5 c -0.5,4.2 -1.6,4.8 -4.6,4.8 h -1.4 v -6.5 h 0.8 c 1.3,0 2.1,0.8 2.4,3.1 h 0.5 v -6.8 c 0,0 -0.5,0 -0.5,0 0,0 -0.1,2.9 -2.4,2.9 h -0.7 z"
       id="path2"
       inkscape:connector-curvature="0"
       style="fill:#c5281c" /><path
       d="M 12.6,64.6 H 6.7 v 0.7 h 2 v 4.8 c -0.3,1.2 -2.2,1.7 -2.7,1.7 -3.8,0 -3.5,-5.5 -3.5,-7 0,-1.3 -0.1,-7 3.5,-7 2.6,0 3.9,2.5 4.4,4.8 h 0.4 c 0,-0.9 0,-5.4 0,-5.4 0,0 -1.8,1.3 -1.8,1.2 0,0 -0.8,-1.2 -3.1,-1.2 -4.4,0 -6.1,4.4 -6.1,7.5 0,2.8 1.3,7.7 6.1,7.7 1.5,0 2.5,-0.8 3.1,-1.6 0,0 1.9,1.5 1.9,1.5 v -7.1 h 1.6 v -0.6 z"
       id="path4"
       inkscape:connector-curvature="0"
       style="fill:#c5281c" /><path
       d="m 81.5,66.9 c -0.5,4.2 -1.6,4.8 -4.6,4.8 H 76.7 V 58.3 h 1.9 v -0.7 h -6.2 v 0.7 h 1.9 V 71.8 H 72.8 L 67.3,57.2 h -0.8 c 0,0 -4.6,13.2 -4.6,13.3 0,0 -0.3,1.1 -1.1,1.3 -0.7,0 -0.6,-0.3 -0.6,-0.5 V 68.7 C 60.2,68 60.1,66.5 59.5,65.8 58.7,65 57.4,65 57.4,64.9 c 0,0 3.4,-0.7 3.4,-3.9 0,-2.3 -1.6,-3.4 -4.2,-3.5 h -7.4 v 0.7 h 1.9 v 13.5 h -1.9 v 0.7 h 6.1 v -0.7 h -1.9 v -6.5 h 2.5 c 4.4,0.4 -0.8,7.2 5,7.2 h 3.6 v -0.7 c -0.2,0 -1.5,0 -1.6,-0.9 -0.1,-0.7 0.9,-3.1 0.9,-3.1 h 5 c 0,0 1.5,4 1.6,4 h -1.7 v 0.7 H 82.2 V 66.9 Z M 55.8,64.5 h -2.4 v -6.2 h 3.1 c 1.8,0.3 1.9,2.4 1.9,3 0,1.6 -0.7,3.2 -2.6,3.2 m 8.4,2.6 2.2,-6.4 2.3,6.4 z"
       id="path6"
       inkscape:connector-curvature="0"
       style="fill:#c5281c" /><path
       d="m 41.8,58.2 c 3.8,0 5.3,-0.2 5.9,4.5 h 0.4 V 57.5 H 32.9 v 0.7 h 0.4 c 0.5,0 1.8,0 1.9,1.2 v 0 8.6 L 28.1,57.5 h -3.9 v 0.7 h 0.6 c 0.8,0 1.8,0 1.9,1.2 v 11 c 0,1.1 -1.6,1.5 -2.3,1.5 v 0 0.5 h 5.3 v -0.5 c -0.7,0 -2.3,-0.4 -2.3,-1.5 v -9.7 c 2.8,4 8.1,11.7 8.2,11.7 h 0.3 v -13 c 0.1,-1.1 1.3,-1.2 1.9,-1.2 h 1.7 v 13.5 h -2 v 0.7 h 10.8 v -5.5 h -0.5 c -0.5,4.2 -1.6,4.8 -4.6,4.8 h -1.4 v -6.5 h 0.8 c 1.3,0 2.1,0.8 2.4,3.1 h 0.5 v -6.8 c 0,0 -0.5,0 -0.5,0 0,0 -0.1,2.9 -2.4,2.9 h -0.7 v -6.2 z"
       id="path8"
       inkscape:connector-curvature="0"
       style="fill:#c5281c" /><polygon
       points="82.8,57.5 82.8,58.3 84.7,58.3 84.7,71.7 82.8,71.7 82.8,72.4 88.9,72.4 88.9,71.7 86.9,71.7 86.9,58.3 88.9,58.3 88.9,57.5 "
       id="polygon10"
       style="fill:#c5281c" /><path
       d="m 72.8,48.3 1.9,-0.7 v 0 c 2.7,-1.1 3.1,-1.8 2.9,-3.6 v -7.2 c 2,5.2 4,8.8 7.9,8.8 0.5,0 1.1,-0.1 1.7,-0.2 l 1.5,-0.3 -1.1,-1.2 c -0.7,-0.7 -1,-1.3 -1.4,-2 C 86,41.6 85.9,41.3 85.7,41 84.8,39.5 82.6,39 80.8,39.8 80,38.2 79.2,36.1 78.2,33.5 L 78,33 c -0.2,-0.4 -0.3,-0.8 -0.5,-1.2 v -0.1 0 c -0.6,-1.4 -1.3,-2.7 -2,-4 -0.7,-1.2 -1.4,-2.2 -2.2,-3.1 -2.1,-2.4 -4.8,-3.9 -8.1,-4.5 -2.3,-0.4 -3.9,-0.5 -6,-0.6 -0.4,0 -0.9,0 -1.3,-0.1 -0.9,-0.1 -2.8,-0.2 -4.7,-0.4 -1.3,-0.1 -2.5,-0.2 -3.5,-0.3 0.1,-0.3 0.1,-0.6 0.1,-0.9 0,-0.4 0,-0.8 -0.1,-1.1 h 13.2 c 3.4,0 5.9,-1.5 7.3,-4.5 3.4,0 5.8,-1.6 7.3,-4.5 H 78 c 3.5,0 6,-1.6 7.5,-4.8 L 86,2 H 41.4 C 38.5,2 36,3.9 35,6.9 V 7 C 34.2,4.9 32.9,3.1 31.1,2 28.6,0.5 25.8,0 23.6,0.7 22.9,0.9 22.1,1.2 21.5,1.6 21,2 20.2,2.5 19.7,3.2 19.1,3.9 18.6,4.8 18.2,5.6 17.9,5.8 17.7,6 17.6,6.2 l -0.5,1 v 0.1 c -0.6,1.4 -1.4,2.4 -2,3.2 -0.6,0.7 -0.6,1.4 -0.6,1.8 0.1,0.5 0.3,0.9 0.6,1.2 v 0 c -0.2,0.3 -0.3,0.7 -0.3,1 0,1.2 1,2.1 2.3,2.1 0.9,0 1.7,-0.4 2.5,-1 0.3,-0.2 1.2,-0.8 1.5,-0.8 0.4,0 0.7,0.3 0.7,0.7 0,1 -1.2,1.5 -2.1,1.5 l -1.8,0.2 C 16.6,17.3 16,18 16,18.6 c 0,0.6 0.3,1 0.5,1.2 l 0.1,0.1 0.5,0.4 -2.1,3.2 c -1.4,-1.3 -3,-2 -4.4,-2.1 -0.9,0 -1.7,0.2 -2.3,0.8 -0.2,0.2 -0.3,0.3 -0.4,0.5 v 0 c -1.5,0 -2.7,0.8 -3.3,1.7 -0.7,1 -0.4,2.7 0.4,4 L 0,29.8 V 53 H 89 V 48.4 H 72.8 Z M 84.3,42 c 0.2,0.3 0.3,0.6 0.5,0.8 0.2,0.3 0.4,0.6 0.6,1 C 84,43.7 82.9,42.9 82,41.5 82.8,41.1 83.9,41.4 84.3,42 M 65,22.2 c 2.9,0.5 5.2,1.8 7,3.8 0.4,0.4 0.7,0.9 1.1,1.4 -4.8,-0.6 -6.5,-1.3 -9.2,-5.4 0.4,0 0.7,0.1 1.1,0.2 m -2.1,-7 h -9.1 c 0.8,-0.7 1.4,-1.6 1.9,-2.6 H 68 c -1,1.8 -2.7,2.6 -5.1,2.6 m 7.2,-4.4 H 61 c 0.8,-0.7 1.5,-1.6 2,-2.7 h 12.3 c -1,1.8 -2.7,2.7 -5.2,2.7 M 70.8,3.9 H 83 c -1.2,1.6 -2.8,2.4 -5.1,2.4 h -9.1 c 0.8,-0.7 1.5,-1.5 2,-2.4 M 21.2,4.3 C 21.5,3.9 22,3.5 22.5,3.1 22.9,2.8 23.5,2.5 24.1,2.4 25,2.2 26,2.2 27,2.4 l -3.3,2 c -0.4,0 -0.8,-0.1 -1.2,-0.1 -0.6,0 -1.1,0 -1.5,0.1 0.1,0 0.1,0 0.2,-0.1 m -3.8,14.4 c 0,-0.1 0.1,-0.2 0.2,-0.2 l 1.6,0.1 c 1.9,-0.1 3.9,-0.9 4.1,-2.9 0,-1.4 -1,-2.7 -2.3,-2.7 -0.7,0 -1.6,0.5 -2.5,1.1 -0.6,0.4 -1.1,0.7 -1.4,0.7 -0.2,0 -0.4,-0.2 -0.4,-0.3 0,0 0,0 0,-0.1 l 1,-1.4 -0.9,-0.6 c -0.2,-0.1 -0.5,-0.4 -0.5,-0.5 0,-0.1 0.1,-0.2 0.1,-0.3 0.4,-0.4 0.8,-0.9 1.2,-1.6 0.3,-0.4 0.4,-0.6 0.8,-0.6 0.4,0 0.8,0.3 0.8,0.8 0,0.3 0.3,0.5 0.7,0.5 0.4,0 0.6,-0.3 0.8,-0.5 0,0 0.9,-0.8 0.4,-1.2 C 20.6,8.6 18.4,9.5 19,7.5 l 0.2,-0.3 c 0.2,-0.3 1.3,-1.1 3.4,-1.1 0.4,0 0.8,0 1.3,0.1 h 0.3 l 4.6,-2.8 c 0,0.1 0.1,0.2 0.1,0.2 v 0 c 0.2,1.4 -0.6,3 -2,3.8 l -0.6,0.3 0.4,2.1 c -1.2,0.4 -2,1.3 -2,2.4 0,0.4 0.1,0.9 0.2,1.4 0.1,0.7 0.3,1.4 0.3,2.1 0,2.2 -3,3.6 -5.5,3.5 h -0.1 c -0.1,0 -1.7,-0.1 -2.1,-0.4 -0.1,0.1 -0.1,0 -0.1,-0.1 M 6,25.5 c 0.4,-0.6 1.2,-1 2.2,-0.9 L 9,24.7 9.3,24 c 0.1,-0.2 0.2,-0.4 0.3,-0.5 0.2,-0.2 0.6,-0.3 1,-0.3 1.1,0 2.5,0.8 3.6,2 0.4,0.4 0.8,1 1.1,1.5 0.1,0.1 0.1,0.2 0.2,0.3 0.1,0.1 0.2,0.3 0.2,0.3 0,0.1 0.6,0.9 0.6,1 0.4,-0.5 0.8,-1.1 1.1,-1.6 0,0 0,-0.1 0,-0.1 -0.1,-0.2 -0.3,-0.5 -0.4,-0.7 l -0.1,-0.1 c 0,0 0,0 0,0 0,0 -0.1,-0.1 -0.1,-0.2 -0.1,-0.2 -0.3,-0.5 -0.4,-0.6 l 2.4,-3.8 c 0.6,0.1 1.1,0.1 1.4,0.1 h 0.1 c 3.4,0 6.9,-2 6.9,-5.2 V 16 c 0,-0.9 -0.2,-1.7 -0.3,-2.4 -0.1,-0.5 -0.2,-0.9 -0.2,-1.1 0,-0.4 0.5,-0.8 1.2,-0.8 H 29 L 28.5,8.9 c 1.5,-1.1 2.5,-3 2.4,-4.7 1.7,1.3 2.8,3.5 3,5.8 0.1,0.7 -0.1,1.6 -0.3,2.6 L 33.5,13 v 0 c -0.4,1.6 -1,3.3 -1.3,4.1 l -0.3,0.7 0.7,0.4 c 1.2,0.7 2,1.2 2,2.8 0,1.9 -1.7,3.3 -3.3,3.6 L 29,25 l 1.9,1.3 c 0.6,0.4 1,1.1 1,1.8 0,1.2 -1,2.1 -2.2,2.1 H 29 l -0.2,0.6 c -0.7,2.2 -1.4,3.3 -3.8,3.6 0,-0.7 0,-1.4 0,-2.3 0,-0.2 0,-0.8 0,-1 L 24.9,29 23.4,30.5 C 22.9,31 22,31.4 21,31.6 V 29.8 L 10.5,27 6.8,28 C 6,27.2 5.8,25.8 6,25.5 m -3,22.8 7.6,-2 7.6,2 z M 19.2,46.7 10.5,44.4 1.8,46.7 V 31.2 l 8.7,-2.3 8.7,2.3 z m 4.1,-3 c -0.8,1.1 -0.9,2.7 -0.3,4.6 H 21.1 V 33.5 c 0.7,-0.1 1.4,-0.3 2.1,-0.6 0,0.6 -0.1,1.2 -0.2,1.8 0,0.2 -0.1,0.3 -0.1,0.5 l -0.2,1.1 h 1.1 c 1.6,0 2.8,-0.3 3.8,-0.7 v 6.2 c 0,0.2 -0.1,0.3 -0.3,0.3 H 27 c -1.6,-0.1 -3,0.5 -3.7,1.6 m 20,0.4 c -0.7,0.8 -1.3,2.1 -0.9,4.2 H 31.1 c 1.2,-0.1 2.1,-0.4 2.7,-1 0.7,-0.8 0.8,-1.8 0.8,-2.6 0,-0.1 0.1,-0.3 0.7,-0.6 l 1,-0.4 -0.6,-0.9 c -1,-1.5 -0.5,-4.7 -0.2,-6.5 h 0.1 c 3.8,0 6.3,-0.8 8.9,-1.6 0.7,-0.2 1.4,-0.4 2.1,-0.7 v 0 c 0,0 0.8,-0.2 1.8,-0.5 l 3.7,6.1 v 0.1 c 0.4,0.5 0.4,0.9 -0.3,1.6 l -1.8,2 -3,-0.6 v 0 c -1.3,-0.2 -2.8,0.4 -3.7,1.4 m 1,4.2 C 44,47 44.1,46 44.7,45.3 c 0.6,-0.7 1.4,-0.8 2.1,-0.8 l 3.5,0.6 h 0.1 0.5 l 2.5,-2.7 v 0 c 0.4,-0.5 1.7,-2 0.4,-3.9 L 50.5,33.1 C 51,33 51.6,33 52.1,33 v 0 c 0,0 1.7,0 3.5,1 0.2,0.5 0.6,1.2 0.9,2 0.7,1.4 1.6,3.2 1.8,3.9 0.1,0.2 0.3,0.9 -0.5,1.8 l -6.3,6.7 h -7.2 z m 21.6,0 h -12 L 59,42.9 c 1,-1.1 1.4,-2.4 0.9,-3.6 -0.2,-0.7 -0.9,-2.1 -1.6,-3.6 2,0.9 5.1,1.8 11.4,2.3 0.8,0.1 1,0.3 1.1,1 l 0.3,2.7 -3.3,0.7 c -1.1,0.2 -2,0.9 -2.4,2 -0.4,1.2 -0.2,2.6 0.5,3.9 m 1.3,-3.2 c 0.2,-0.5 0.5,-0.8 1,-0.9 l 4.9,-1.1 -0.4,-4.4 v -0.1 c -0.1,-0.6 -0.5,-2.3 -2.8,-2.5 -8.8,-0.7 -10.8,-2 -13,-3.4 0,0 0,0 0,0 v 0 l -0.1,-0.1 c -2.3,-1.5 -4.6,-1.5 -4.8,-1.5 -2.5,0 -5.6,1 -5.9,1.1 -0.8,0.2 -1.5,0.5 -2.2,0.7 -2.8,0.9 -5.1,1.7 -9.1,1.5 h -0.7 l -0.2,0.7 c -0.1,0.5 -1.3,5 -0.2,7.8 -1,0.8 -1,1.6 -1,1.8 0,1 -0.2,1.2 -0.3,1.3 -0.5,0.5 -2,0.5 -3.3,0.5 v 0 h -0.5 l -0.3,0.4 c -0.8,1.1 -2.5,1.4 -3.6,1.1 -0.5,-1.5 -0.5,-2.6 0,-3.3 0.6,-0.8 1.7,-0.9 2.2,-0.9 h 0.3 c 1.2,0 2.1,-1 2.1,-2.1 v -7.9 c 0.4,-0.5 0.6,-1.2 0.9,-1.9 1.9,-0.3 3.4,-1.9 3.4,-3.9 0,-0.8 -0.2,-1.5 -0.6,-2.1 1.8,-0.9 3.3,-2.6 3.3,-4.9 0,-2.3 -1.2,-3.4 -2.3,-4 0.3,-0.9 0.8,-2.4 1.2,-4 L 36.7,7.5 C 37.4,5.3 39.2,3.9 41.3,3.9 H 68.5 C 67.3,5.5 65.7,6.3 63.4,6.3 H 47.1 L 46.2,8.1 H 61 c -1.2,1.8 -2.9,2.7 -5.3,2.7 H 45 l -0.9,1.8 h 9.5 c -1.2,1.8 -2.8,2.6 -5.2,2.6 H 42.6 L 41.7,17 h 6.1 c 0.1,0.1 0.2,0.4 0.2,1.1 0,1.2 -1,2.1 -2.2,2.1 -0.4,0 -0.8,-0.1 -1.4,-0.4 -0.3,-0.1 -0.5,-0.2 -0.8,-0.3 l -1.4,1.3 c 0.3,0.1 0.5,0.2 0.8,0.3 v 0 c 1.2,0.5 1.9,0.8 2.8,0.8 1.1,0 2.1,-0.5 2.9,-1.2 1,0.1 2.7,0.2 4.4,0.3 2,0.2 3.8,0.3 4.8,0.4 0.5,0 0.9,0 1.4,0.1 0.8,0 1.6,0.1 2.3,0.1 3.7,6 5.6,6.8 12.8,7.7 0.5,0.9 1,1.9 1.4,2.9 V 43.9 44 c 0,0.5 0,0.7 0,0.8 -0.3,0.3 -1.4,0.8 -1.7,0.9 L 68,48.2 C 67.2,47.1 66.9,46 67.2,45.1"
       id="path12"
       inkscape:connector-curvature="0"
       style="fill:#c5281c" /><polygon
       points="11.5,34 17.3,35.5 17.3,33.6 11.5,32.1 "
       id="polygon14"
       style="fill:#c5281c" /><polygon
       points="9.6,32.1 3.8,33.6 3.8,35.5 9.6,34 "
       id="polygon16"
       style="fill:#c5281c" /><polygon
       points="9.6,35.9 3.8,37.4 3.8,39.3 9.6,37.8 "
       id="polygon18"
       style="fill:#c5281c" /><polygon
       points="11.5,37.8 17.3,39.3 17.3,37.4 11.5,35.9 "
       id="polygon20"
       style="fill:#c5281c" /><polygon
       points="11.5,41.6 17.3,43.1 17.3,41.2 11.5,39.7 "
       id="polygon22"
       style="fill:#c5281c" /><polygon
       points="9.6,39.7 3.8,41.2 3.8,43.1 9.6,41.6 "
       id="polygon24"
       style="fill:#c5281c" /></g></svg>